#define owl2_width 16
#define owl2_height 16
static char owl2_bits[] = {
  0xCF, 0xEB, 0xCF, 0xF3, 0x0F, 0xF0, 0x0D, 0xE0, 0x26, 0x72, 0x09, 0xA0, 
  0x0F, 0xB0, 0xAF, 0xFC, 0xAB, 0xEF, 0xFF, 0xFE, 0xFF, 0xF3, 0x1F, 0xFD, 
  0x9F, 0xFD, 0xFF, 0xBF, 0xFF, 0xFE, 0xBF, 0xFE, };
